<svg width="31" height="41" viewBox="0 0 31 41" fill="none" xmlns="http://www.w3.org/2000/svg">
<path d="M3.43498 2.95647L3.43498 13.9686L-1.69148e-06 17.05L-1.4908e-06 19.8788C-1.40837e-06 21.0406 0.909259 21.9499 2.07109 21.9499C2.12161 21.9499 2.12161 21.9499 2.12161 22.0004L2.12161 23.9705L-1.06434e-06 25.89L-2.07851e-07 37.963C-1.50513e-07 38.7712 0.303087 39.4784 0.858746 40.0341C1.41441 40.5897 2.17212 40.8928 2.92984 40.8928L27.4799 40.8928C28.2881 40.8928 28.9953 40.5897 29.551 40.0341C30.1066 39.4784 30.4097 38.7207 30.4097 37.963L30.4097 2.95647C30.4097 1.34 29.0963 0.0266258 27.4799 0.0266258L6.36482 0.0266264C4.79887 0.0266265 3.43498 1.34 3.43498 2.95647ZM27.5304 2.04721C28.0355 2.04721 28.4396 2.45132 28.4396 2.95647L28.4396 37.963C28.4396 38.2156 28.3386 38.4681 28.1871 38.6197C28.0355 38.7712 27.783 38.8722 27.5304 38.8722L2.98035 38.8722C2.72778 38.8722 2.47521 38.7712 2.32366 38.6197C2.17212 38.4681 2.07109 38.2156 2.07109 37.963L2.07109 26.7993L3.53601 25.4354C3.94013 25.0313 4.1927 24.4756 4.1927 23.92L4.1927 22.0004C4.1927 20.8386 3.28344 19.9293 2.12161 19.9293C2.07109 19.9293 2.07109 19.9293 2.07109 19.8788L2.07109 17.9593L5.50607 14.8779L5.50607 2.95647C5.50607 2.45132 5.91019 2.04721 6.41533 2.04721L27.5304 2.04721Z" fill="#474747"/>
<path d="M6.31433 4.77484L6.31433 14.1705L8.33491 14.1705L8.33491 4.77484L6.31433 4.77484Z" fill="#474747"/>
<path d="M9.4967 4.77484L9.4967 14.1705L11.5173 14.1705L11.5173 4.77484L9.4967 4.77484Z" fill="#474747"/>
<path d="M12.6791 4.77484L12.6791 14.1705L14.6997 14.1705L14.6997 4.77484L12.6791 4.77484Z" fill="#474747"/>
<path d="M15.8614 3.10787L15.8615 14.1705L17.882 14.1705L17.882 3.10787L15.8614 3.10787Z" fill="#474747"/>
<path d="M19.0439 4.77484L19.0439 14.1705L21.0645 14.1705L21.0645 4.77484L19.0439 4.77484Z" fill="#474747"/>
<path d="M22.2263 3.10787L22.2263 14.1705L24.2469 14.1705L24.2469 3.10787L22.2263 3.10787Z" fill="#474747"/>
<path d="M25.3583 4.77484L25.3583 14.1705L27.3789 14.1705L27.3789 4.77484L25.3583 4.77484Z" fill="#474747"/>
</svg>
