<svg width="60" height="37" viewBox="0 0 60 37" fill="none" xmlns="http://www.w3.org/2000/svg">
<path fill-rule="evenodd" clip-rule="evenodd" d="M-9.48609e-07 14.9871L-4.64209e-07 26.0688L0.92348 26.0688C-4.64209e-07 26.0688 -4.64189e-07 26.0693 -4.64168e-07 26.0698L1.77983e-06 26.0708L8.71544e-06 26.0732L4.29529e-05 26.0789L0.000232634 26.0943C0.00042793 26.1064 0.000781366 26.1221 0.00141426 26.1411C0.00267911 26.179 0.00506598 26.2304 0.00956135 26.2934C0.0185297 26.4189 0.0360188 26.5923 0.0702823 26.7978C0.13808 27.2046 0.275396 27.7611 0.559235 28.3288C0.844881 28.9001 1.28785 29.4995 1.9696 29.954C2.65713 30.4123 3.53233 30.6863 4.6174 30.6863L10.948 30.6863C11.954 34.1446 15.1584 36.6887 18.9314 36.6887L40.1714 36.6887C43.9444 36.6887 47.1488 34.1446 48.1548 30.6863L54.4854 30.6863C55.5705 30.6863 56.4457 30.4123 57.1332 29.954C57.8149 29.4995 58.2579 28.9001 58.5435 28.3288C58.8274 27.7611 58.9647 27.2046 59.0325 26.7978C59.0668 26.5923 59.0843 26.4189 59.0932 26.2934C59.0977 26.2304 59.1001 26.179 59.1014 26.1411C59.102 26.1221 59.1024 26.1064 59.1025 26.0943L59.1027 26.0789L59.1028 26.0732L59.1028 26.0708L59.1028 26.0698C59.1028 26.0693 59.1028 26.0688 58.1793 26.0688L59.1028 26.0688L59.1028 14.9871L58.1793 14.9871C59.1028 14.9871 59.1028 14.9866 59.1028 14.9861L59.1028 14.9851L59.1028 14.9828L59.1027 14.9771L59.1025 14.9616C59.1024 14.9495 59.102 14.9338 59.1014 14.9148C59.1001 14.8769 59.0977 14.8255 59.0932 14.7626C59.0843 14.637 59.0668 14.4637 59.0325 14.2581C58.9647 13.8513 58.8274 13.2948 58.5435 12.7271C58.2579 12.1558 57.8149 11.5565 57.1332 11.102C56.4457 10.6436 55.5705 10.3697 54.4854 10.3697L48.1549 10.3697C47.149 6.91114 43.9445 4.3669 40.1714 4.3669L20.3166 4.3669L20.3166 3.45198L20.3171 3.44097L20.3179 3.43008C20.3197 3.40413 20.3239 3.36103 20.3329 3.30688C20.3517 3.19421 20.3875 3.05809 20.45 2.93316C20.5106 2.81184 20.5871 2.71862 20.6846 2.65366C20.7762 2.59255 20.9399 2.52016 21.2401 2.52016L24.0022 2.52016C24.0059 2.52031 24.0133 2.52066 24.0241 2.52143C24.05 2.52328 24.0931 2.52743 24.1473 2.53646C24.26 2.55524 24.3961 2.59107 24.521 2.65354C24.6423 2.7142 24.7356 2.79069 24.8005 2.88813C24.8616 2.97978 24.934 3.1435 24.934 3.44364L26.781 3.44364C26.781 2.82031 26.6225 2.29142 26.3373 1.86362C26.0559 1.4416 25.6874 1.17178 25.347 1.00157C25.0102 0.833163 24.6846 0.753566 24.4509 0.714625C24.3319 0.694793 24.2307 0.68452 24.1557 0.679156C24.118 0.676467 24.0864 0.674983 24.062 0.674167L24.0408 0.673575L24.0307 0.673381L24.0192 0.67324L24.0145 0.673213L24.0124 0.673205L24.0114 0.673205C24.011 0.673201 24.0105 0.673201 24.0105 1.59668L24.0105 0.673201L21.2401 0.673202C20.6167 0.673202 20.0878 0.831691 19.66 1.11689C19.238 1.39823 18.9682 1.76675 18.798 2.10717C18.6296 2.44398 18.55 2.76961 18.5111 3.00324C18.4912 3.12224 18.4809 3.22343 18.4756 3.29849C18.4729 3.33617 18.4714 3.36772 18.4706 3.39214L18.4701 3.40919L18.4698 3.42345L18.4697 3.43498L18.4696 3.43967L18.4696 3.44175L18.4696 3.44272C18.4696 3.44319 18.4696 3.44364 19.3931 3.44364L18.4696 3.44364L18.4696 4.37965C14.8989 4.57736 11.9125 7.05314 10.9479 10.3697L4.6174 10.3697C3.53233 10.3697 2.65713 10.6436 1.9696 11.102C1.28785 11.5565 0.84488 12.1558 0.559234 12.7271C0.275395 13.2948 0.138079 13.8513 0.0702818 14.2581C0.0360183 14.4637 0.0185292 14.637 0.00956084 14.7626C0.00506548 14.8255 0.00267862 14.8769 0.00141377 14.9148C0.000780877 14.9338 0.000427442 14.9495 0.000232148 14.9616L4.24676e-05 14.9771L8.23066e-06 14.9828L1.29525e-06 14.9851L-9.4865e-07 14.9861C-9.48629e-07 14.9866 -9.48609e-07 14.9871 0.92348 14.9871L-9.48609e-07 14.9871ZM10.6201 28.3774C10.6201 28.5324 10.6243 28.6864 10.6328 28.8393L4.6174 28.8393C3.85552 28.8393 3.3455 28.6515 2.99411 28.4172C2.63694 28.1791 2.3873 27.855 2.21121 27.5028C2.03331 27.147 1.93975 26.78 1.89211 26.4942C1.86866 26.3535 1.85729 26.2382 1.85183 26.1618C1.84911 26.1237 1.84789 26.0957 1.84735 26.0796L1.84696 26.065L1.84696 14.9909L1.84735 14.9764C1.84789 14.9602 1.84911 14.9322 1.85183 14.8942C1.85729 14.8177 1.86866 14.7025 1.89211 14.5617C1.93975 14.2759 2.0333 13.9089 2.21121 13.5531C2.3873 13.2009 2.63694 12.8768 2.99411 12.6387C3.3455 12.4045 3.85552 12.2166 4.6174 12.2166L10.6328 12.2166C10.6243 12.3695 10.6201 12.5234 10.6201 12.6782L10.6201 28.3774ZM54.4854 28.8393L48.47 28.8393C48.4785 28.6864 48.4828 28.5324 48.4828 28.3774L48.4828 12.6782C48.4828 12.5234 48.4785 12.3695 48.47 12.2166L54.4854 12.2166C55.2473 12.2166 55.7573 12.4045 56.1087 12.6387C56.4658 12.8768 56.7155 13.2009 56.8916 13.5531C57.0695 13.9089 57.163 14.2759 57.2107 14.5617C57.2341 14.7025 57.2455 14.8177 57.2509 14.8942C57.2537 14.9322 57.2549 14.9602 57.2554 14.9764L57.2558 14.991L57.2558 26.065L57.2554 26.0796C57.2549 26.0957 57.2537 26.1237 57.2509 26.1618C57.2455 26.2382 57.2341 26.3535 57.2107 26.4942C57.163 26.78 57.0695 27.147 56.8916 27.5028C56.7155 27.855 56.4658 28.1791 56.1087 28.4172C55.7573 28.6515 55.2473 28.8393 54.4854 28.8393ZM12.467 28.3774C12.467 31.9307 15.3781 34.8418 18.9314 34.8418L40.1714 34.8418C43.7247 34.8418 46.6358 31.9307 46.6358 28.3774L46.6358 12.6782C46.6358 9.12494 43.7247 6.21386 40.1714 6.21386L18.9314 6.21386C15.3781 6.21386 12.467 9.12494 12.467 12.6782L12.467 28.3774ZM18.9314 33.9184C15.8818 33.9184 13.3905 31.4271 13.3905 28.3775L13.3905 12.6783C13.3905 9.6287 15.8818 7.13742 18.9314 7.13742L40.1714 7.13742C43.221 7.13741 45.7123 9.6287 45.7123 12.6783L45.7123 14.5253L43.8653 14.5253L43.8653 12.6783C43.8653 10.6488 42.201 8.98438 40.1714 8.98438L18.9314 8.98438C16.9018 8.98438 15.2374 10.6488 15.2374 12.6783L15.2374 28.3775C15.2374 30.407 16.9018 32.0714 18.9314 32.0714L40.1714 32.0714C42.201 32.0714 43.8653 30.407 43.8653 28.3775L43.8653 23.7601L45.7123 23.7601L45.7123 28.3775C45.7123 31.4271 43.221 33.9183 40.1714 33.9183L18.9314 33.9184ZM44.3271 16.3722C45.0921 16.3722 45.7123 16.9924 45.7123 17.7574C45.7123 18.5225 45.0921 19.1426 44.3271 19.1426C43.562 19.1426 42.9418 18.5225 42.9418 17.7574C42.9418 16.9924 43.562 16.3722 44.3271 16.3722ZM36.0157 26.0688C34.2128 26.0688 32.7836 24.6395 32.7836 22.8366L34.6305 22.8366C34.6305 23.6194 35.2329 24.2218 36.0157 24.2218C36.7986 24.2218 37.401 23.6194 37.401 22.8366C37.401 22.0537 36.7986 21.4514 36.0157 21.4514L36.0157 19.6044C37.8186 19.6044 39.2479 21.0337 39.2479 22.8366C39.2479 24.6395 37.8186 26.0688 36.0157 26.0688ZM24.4722 15.9105C23.7072 15.9105 23.087 15.2903 23.087 14.5253C23.087 13.7602 23.7072 13.1401 24.4722 13.1401C25.2373 13.1401 25.8575 13.7602 25.8575 14.5253C25.8575 15.2903 25.2373 15.9105 24.4722 15.9105ZM21.2401 14.5253C21.2401 16.3104 22.6872 17.7575 24.4722 17.7575C26.2573 17.7575 27.7044 16.3104 27.7044 14.5253C27.7044 12.7402 26.2573 11.2931 24.4722 11.2931C22.6872 11.2931 21.2401 12.7402 21.2401 14.5253ZM28.1662 20.0662C28.1662 20.5763 28.5796 20.9897 29.0897 20.9897C29.5997 20.9897 30.0131 20.5763 30.0131 20.0662C30.0131 19.5562 29.5997 19.1427 29.0897 19.1427C28.5796 19.1427 28.1662 19.5562 28.1662 20.0662ZM29.0897 22.8367C27.5596 22.8367 26.3192 21.5963 26.3192 20.0662C26.3192 18.5362 27.5596 17.2958 29.0897 17.2958C30.6197 17.2958 31.8601 18.5362 31.8601 20.0662C31.8601 21.5963 30.6197 22.8367 29.0897 22.8367ZM19.8548 22.8366C19.8548 24.3625 21.0994 25.607 22.6253 25.607C24.1511 25.607 25.3957 24.3625 25.3957 22.8366L23.5487 22.8366C23.5487 23.3424 23.1311 23.7601 22.6253 23.7601C22.1195 23.7601 21.7018 23.3424 21.7018 22.8366C21.7018 22.3308 22.1195 21.9131 22.6253 21.9131L22.6253 20.0662C21.0994 20.0662 19.8548 21.3107 19.8548 22.8366ZM28.6279 26.9924C28.6279 27.5024 29.0414 27.9158 29.5514 27.9158C30.0614 27.9158 30.4749 27.5024 30.4749 26.9924C30.4749 26.4823 30.0614 26.0689 29.5514 26.0689C29.0414 26.0689 28.6279 26.4823 28.6279 26.9924ZM29.5514 29.7628C28.0213 29.7628 26.7809 28.5224 26.7809 26.9924C26.7809 25.4623 28.0213 24.2219 29.5514 24.2219C31.0815 24.2219 32.3218 25.4623 32.3218 26.9924C32.3218 28.5224 31.0815 29.7628 29.5514 29.7628ZM31.3983 15.4487C31.3983 16.9746 32.6429 18.2192 34.1688 18.2192C35.6946 18.2192 36.9392 16.9746 36.9392 15.4487L35.0922 15.4487C35.0922 15.9546 34.6746 16.3722 34.1688 16.3722C33.663 16.3722 33.2453 15.9546 33.2453 15.4487C33.2453 14.9429 33.663 14.5253 34.1688 14.5253L34.1688 12.6783C32.6429 12.6783 31.3983 13.9229 31.3983 15.4487Z" fill="#474747"/>
</svg>
