<svg width="48" height="48" viewBox="0 0 48 48" fill="none" xmlns="http://www.w3.org/2000/svg">
<path d="M44.3765 19.3146H43.3904V13.3978C43.3904 12.6131 43.0787 11.8607 42.5239 11.3058C41.9691 10.751 41.2166 10.4393 40.432 10.4393H26.6259C25.8413 10.4393 25.0888 10.751 24.534 11.3058C23.9792 11.8607 23.6675 12.6131 23.6675 13.3978V19.3146H22.6813C21.8967 19.3146 21.1442 19.6263 20.5894 20.1811C20.0346 20.736 19.7229 21.4885 19.7229 22.2731V24.2454H14.7922C14.2691 24.2454 13.7674 24.0376 13.3976 23.6677C13.0277 23.2978 12.8199 22.7962 12.8199 22.2731V12.4116C13.6045 12.4116 14.357 12.0999 14.9118 11.5451C15.4666 10.9903 15.7783 10.2378 15.7783 9.45319V8.36843C16.892 8.14109 17.893 7.53594 18.6118 6.6554C19.3306 5.77485 19.7231 4.673 19.7229 3.53632V1.56403C19.7229 1.30248 19.619 1.05165 19.4341 0.866716C19.2491 0.681778 18.9983 0.577881 18.7368 0.577881H0.986145C0.724603 0.577881 0.473773 0.681778 0.288835 0.866716C0.103897 1.05165 1.02784e-07 1.30248 1.02784e-07 1.56403V3.53632C-0.000231893 4.673 0.392272 5.77485 1.11108 6.6554C1.8299 7.53594 2.83086 8.14109 3.94458 8.36843V9.45319C3.94458 10.2378 4.25627 10.9903 4.81109 11.5451C5.3659 12.0999 6.11839 12.4116 6.90302 12.4116V23.2592C6.90302 25.09 7.6303 26.8458 8.92486 28.1404C10.2194 29.435 11.9752 30.1622 13.806 30.1622H19.7229V32.1345C19.7229 32.9192 20.0346 33.6716 20.5894 34.2265C21.1442 34.7813 21.8967 35.093 22.6813 35.093H23.6675V41.0098C23.6692 41.6202 23.8597 42.2151 24.2128 42.713C24.5659 43.2108 25.0643 43.5873 25.6398 43.7908V44.9544C25.6398 45.739 25.9515 46.4915 26.5063 47.0463C27.0611 47.6012 27.8136 47.9129 28.5982 47.9129H38.4597C39.2443 47.9129 39.9968 47.6012 40.5516 47.0463C41.1064 46.4915 41.4181 45.739 41.4181 44.9544V43.7908C41.9936 43.5873 42.492 43.2108 42.8451 42.713C43.1982 42.2151 43.3887 41.6202 43.3904 41.0098V35.093H44.3765C45.1612 35.093 45.9137 34.7813 46.4685 34.2265C47.0233 33.6716 47.335 32.9192 47.335 32.1345V22.2731C47.335 21.4885 47.0233 20.736 46.4685 20.1811C45.9137 19.6263 45.1612 19.3146 44.3765 19.3146ZM25.6398 18.3285H41.4181V36.0791H25.6398V18.3285ZM25.6398 13.3978C25.6398 13.1362 25.7437 12.8854 25.9286 12.7005C26.1136 12.5155 26.3644 12.4116 26.6259 12.4116H40.432C40.6935 12.4116 40.9443 12.5155 41.1293 12.7005C41.3142 12.8854 41.4181 13.1362 41.4181 13.3978V16.3562H25.6398V13.3978ZM1.97229 3.53632V2.55017H17.7506V3.53632C17.747 4.18411 17.5308 4.8128 17.1353 5.32586C16.7399 5.83892 16.1869 6.208 15.5614 6.37642C15.3412 5.82936 14.9626 5.36057 14.4741 5.03023C13.9856 4.69989 13.4096 4.52307 12.8199 4.52246H6.90302C6.31332 4.52307 5.73727 4.69989 5.24878 5.03023C4.7603 5.36057 4.38169 5.82936 4.16153 6.37642C3.53601 6.208 2.98306 5.83892 2.58757 5.32586C2.19208 4.8128 1.97593 4.18411 1.97229 3.53632ZM5.91687 9.45319V7.4809C5.91687 7.21936 6.02077 6.96853 6.20571 6.78359C6.39065 6.59865 6.64148 6.49475 6.90302 6.49475H12.8199C13.0814 6.49475 13.3323 6.59865 13.5172 6.78359C13.7021 6.96853 13.806 7.21936 13.806 7.4809V9.45319C13.806 9.71473 13.7021 9.96556 13.5172 10.1505C13.3323 10.3354 13.0814 10.4393 12.8199 10.4393H6.90302C6.64148 10.4393 6.39065 10.3354 6.20571 10.1505C6.02077 9.96556 5.91687 9.71473 5.91687 9.45319ZM13.806 28.1899C12.4983 28.1899 11.2442 27.6705 10.3195 26.7458C9.39479 25.8211 8.87531 24.5669 8.87531 23.2592V12.4116H10.8476V22.2731C10.8476 23.3192 11.2632 24.3226 12.0029 25.0623C12.7427 25.8021 13.746 26.2177 14.7922 26.2177H19.7229V28.1899H13.806ZM22.6813 33.1207C22.4198 33.1207 22.169 33.0168 21.984 32.8318C21.7991 32.6469 21.6952 32.3961 21.6952 32.1345V22.2731C21.6952 22.0115 21.7991 21.7607 21.984 21.5758C22.169 21.3908 22.4198 21.2869 22.6813 21.2869H23.6675V33.1207H22.6813ZM39.4458 44.9544C39.4458 45.216 39.3419 45.4668 39.157 45.6517C38.972 45.8367 38.7212 45.9406 38.4597 45.9406H28.5982C28.3367 45.9406 28.0858 45.8367 27.9009 45.6517C27.716 45.4668 27.6121 45.216 27.6121 44.9544V43.9683H39.4458V44.9544ZM41.4181 41.0098C41.4181 41.2714 41.3142 41.5222 41.1293 41.7071C40.9443 41.8921 40.6935 41.996 40.432 41.996H26.6259C26.3644 41.996 26.1136 41.8921 25.9286 41.7071C25.7437 41.5222 25.6398 41.2714 25.6398 41.0098V38.0514H41.4181V41.0098ZM45.3627 32.1345C45.3627 32.3961 45.2588 32.6469 45.0738 32.8318C44.8889 33.0168 44.6381 33.1207 44.3765 33.1207H43.3904V21.2869H44.3765C44.6381 21.2869 44.8889 21.3908 45.0738 21.5758C45.2588 21.7607 45.3627 22.0115 45.3627 22.2731V32.1345Z" fill="#474747"/>
<path d="M33.5289 41.0099C33.7904 41.0099 34.0412 40.906 34.2262 40.7211C34.4111 40.5361 34.515 40.2853 34.515 40.0237C34.515 39.7622 34.4111 39.5114 34.2262 39.3264C34.0412 39.1415 33.7904 39.0376 33.5289 39.0376C33.2673 39.0376 33.0165 39.1415 32.8316 39.3264C32.6466 39.5114 32.5427 39.7622 32.5427 40.0237C32.5427 40.2853 32.6466 40.5361 32.8316 40.7211C33.0165 40.906 33.2673 41.0099 33.5289 41.0099Z" fill="#474747"/>
<path d="M35.5013 13.3977H31.5567C31.2952 13.3977 31.0443 13.5016 30.8594 13.6865C30.6745 13.8715 30.5706 14.1223 30.5706 14.3839C30.5706 14.6454 30.6745 14.8962 30.8594 15.0812C31.0443 15.2661 31.2952 15.37 31.5567 15.37H35.5013C35.7628 15.37 36.0137 15.2661 36.1986 15.0812C36.3835 14.8962 36.4874 14.6454 36.4874 14.3839C36.4874 14.1223 36.3835 13.8715 36.1986 13.6865C36.0137 13.5016 35.7628 13.3977 35.5013 13.3977Z" fill="#474747"/>
</svg>
