<svg width="41" height="47" viewBox="0 0 41 47" fill="none" xmlns="http://www.w3.org/2000/svg">
<path d="M36.5368 5.07427V4.06275H32.3295V2.6686H24.1364H22.3649H21.4792V0.0556641H10.8503V2.6686H0V18.7005H10.8503V21.3134H14.0567V29.2851H12.6218V46.9999H19.7077V29.2851H18.2728V21.3134H20.3623C21.4783 21.9326 26.9229 24.8564 30.3366 24.8564C34.0097 24.8564 39.4606 21.3054 40.0771 13.4108C40.5447 7.42325 37.9017 5.61014 36.5368 5.07427ZM24.1364 4.44008H30.558V7.47373V16.929H24.1364V4.44008ZM12.6218 1.82714H19.7077V2.6686H12.6218V1.82714ZM1.77148 16.929V4.44008H10.8503H21.4792H22.3649V16.929H21.4792H10.8503H1.77148ZM17.9362 45.2284H14.3933V31.0566H17.9362V45.2284ZM16.5013 29.2851H15.8282V21.3134H16.5013V29.2851ZM19.7077 19.5419H18.2728H14.0567H12.6218V18.7005H19.7077V19.5419ZM38.3109 13.2727C37.7821 20.0406 33.3295 23.0849 30.3366 23.0849C27.5837 23.0849 22.9176 20.681 21.4792 19.9033V18.7005H22.3649H24.1364H32.3295V7.47373H36.5368V7.08755C37.4526 7.7678 38.6129 9.39756 38.3109 13.2727Z" fill="#474747"/>
<path d="M27.3472 8.02759C25.8821 8.02759 24.6899 9.21979 24.6899 10.6848C24.6899 12.1498 25.8821 13.342 27.3472 13.342C28.8122 13.342 30.0044 12.1498 30.0044 10.6848C30.0044 9.21979 28.8122 8.02759 27.3472 8.02759ZM27.3472 11.5705C26.8591 11.5705 26.4614 11.1737 26.4614 10.6848C26.4614 10.1959 26.8591 9.79907 27.3472 9.79907C27.8352 9.79907 28.2329 10.1959 28.2329 10.6848C28.2329 11.1737 27.8352 11.5705 27.3472 11.5705Z" fill="#474747"/>
</svg>
