<svg width="52" height="52" viewBox="0 0 52 52" fill="none" xmlns="http://www.w3.org/2000/svg">
<path d="M39.4198 15.0968C42.6564 15.0968 45.2908 12.4632 45.2908 9.22583C45.2908 5.98841 42.6564 3.35486 39.4198 3.35486C36.1832 3.35486 33.5488 5.98841 33.5488 9.22583C33.5488 12.4632 36.1832 15.0968 39.4198 15.0968ZM39.4198 5.03228C41.7321 5.03228 43.6133 6.9135 43.6133 9.22583C43.6133 11.5381 41.7321 13.4194 39.4198 13.4194C37.1075 13.4194 35.2262 11.5381 35.2262 9.22583C35.2262 6.9135 37.1075 5.03228 39.4198 5.03228Z" fill="black"/>
<path d="M12.5806 36.9032C11.1934 36.9032 10.0645 38.0321 10.0645 39.4193C10.0645 40.8066 11.1934 41.9355 12.5806 41.9355C13.9678 41.9355 15.0967 40.8066 15.0967 39.4193C15.0967 38.0321 13.9678 36.9032 12.5806 36.9032ZM12.5806 40.258C12.1176 40.258 11.7419 39.8815 11.7419 39.4193C11.7419 38.9572 12.1176 38.5806 12.5806 38.5806C13.0435 38.5806 13.4193 38.9572 13.4193 39.4193C13.4193 39.8815 13.0435 40.258 12.5806 40.258Z" fill="black"/>
<path d="M44.3971 18.4516C44.6512 18.0524 44.9171 17.6615 45.2081 17.2866L46.701 15.3668C47.9549 13.7557 48.6452 11.7445 48.6452 9.70303V9.22581C48.6452 4.13903 44.5061 0 39.4194 0C34.3326 0 30.1935 4.13903 30.1935 9.22581V9.70303C30.1935 11.7445 30.8838 13.7565 32.1368 15.3668L33.6297 17.2866C33.9208 17.6615 34.1875 18.0532 34.4408 18.4516H0V52H52V18.4516H44.3971ZM33.4612 14.3377C32.4354 13.0185 31.871 11.3729 31.871 9.70303V9.22581C31.871 5.06413 35.2568 1.67742 39.4194 1.67742C43.5819 1.67742 46.9677 5.06413 46.9677 9.22581V9.70303C46.9677 11.3729 46.4033 13.0193 45.3775 14.3377L43.8846 16.2575C42.0865 18.569 40.9181 21.3225 40.5038 24.2211C40.4266 24.757 39.9612 25.1613 39.4194 25.1613C38.8775 25.1613 38.4121 24.757 38.3349 24.2203C37.9206 21.3217 36.7514 18.5682 34.9541 16.2567L33.4612 14.3377ZM39.4194 28.5161C34.8115 28.5161 31.871 27.0257 31.871 26C31.871 25.3257 33.3756 24.1959 36.5426 23.7112C36.5904 23.9594 36.6382 24.2077 36.6743 24.4585C36.8688 25.8155 38.0489 26.8387 39.4194 26.8387C40.7898 26.8387 41.9699 25.8155 42.1644 24.4585C42.2005 24.2077 42.2475 23.9594 42.2961 23.712C45.4631 24.1959 46.9677 25.3257 46.9677 26C46.9677 27.0257 44.0272 28.5161 39.4194 28.5161ZM36.1241 22.0698C32.4908 22.6577 30.1935 24.1532 30.1935 26C30.1935 28.5539 34.372 30.0057 38.5806 30.1768V34.3871C38.5806 34.8492 38.2049 35.2258 37.7419 35.2258H29.3548C28.8919 35.2258 28.5161 34.8492 28.5161 34.3871V30.1935C28.5161 28.8063 27.3872 27.6774 26 27.6774C24.6128 27.6774 23.4839 28.8063 23.4839 30.1935V46.129C23.4839 46.5912 23.1081 46.9677 22.6452 46.9677C22.1822 46.9677 21.8065 46.5912 21.8065 46.129V41.0968C21.8065 39.7095 20.6775 38.5806 19.2903 38.5806H18.3845C18.1002 36.6072 16.8346 34.9524 15.0968 34.1229V20.129H35.3667C35.6636 20.7581 35.9161 21.4064 36.1241 22.0698ZM10.0645 44.7158C10.8286 45.0798 11.6799 45.2903 12.5806 45.2903C12.8658 45.2903 13.1443 45.2626 13.4194 45.2232V50.3226H10.0645V44.7158ZM12.5806 43.6129C10.2683 43.6129 8.3871 41.7317 8.3871 39.4194C8.3871 37.107 10.2683 35.2258 12.5806 35.2258C14.893 35.2258 16.7742 37.107 16.7742 39.4194C16.7742 41.7317 14.893 43.6129 12.5806 43.6129ZM10.0645 20.129H13.4194V33.6155C13.1443 33.5761 12.8658 33.5484 12.5806 33.5484C11.6799 33.5484 10.8286 33.7589 10.0645 34.1229V28.5161H1.67742V25.1613H10.0645V20.129ZM8.3871 20.129V23.4839H1.67742V20.129H8.3871ZM1.67742 30.1935H8.3871V35.3189C7.35129 36.3774 6.70968 37.8241 6.70968 39.4194C6.70968 41.0146 7.35129 42.4614 8.3871 43.5198V50.3226H1.67742V30.1935ZM50.3226 50.3226H15.0968V44.7158C16.8346 43.8863 18.1002 42.2315 18.3845 40.2581H19.2903C19.7533 40.2581 20.129 40.6346 20.129 41.0968V46.129C20.129 47.5163 21.2579 48.6452 22.6452 48.6452C24.0324 48.6452 25.1613 47.5163 25.1613 46.129V30.1935C25.1613 29.7314 25.537 29.3548 26 29.3548C26.463 29.3548 26.8387 29.7314 26.8387 30.1935V34.3871C26.8387 35.7743 27.9676 36.9032 29.3548 36.9032H37.7419C39.1292 36.9032 40.2581 35.7743 40.2581 34.3871V30.1768C44.4667 30.0057 48.6452 28.5539 48.6452 26C48.6452 24.1532 46.3479 22.6577 42.7146 22.0698C42.9226 21.4055 43.1759 20.7581 43.472 20.129H50.3226V50.3226Z" fill="black"/>
<path d="M48.6452 46.9678H46.9678V48.6452H48.6452V46.9678Z" fill="black"/>
<path d="M45.2907 46.9678H43.6133V48.6452H45.2907V46.9678Z" fill="black"/>
<path d="M41.9352 46.9678H40.2578V48.6452H41.9352V46.9678Z" fill="black"/>
<path d="M48.6449 43.6129H40.2578V45.2903H48.6449V43.6129Z" fill="black"/>
<path d="M48.6449 40.2581H40.2578V41.9355H48.6449V40.2581Z" fill="black"/>
</svg>
