<svg width="28" height="39" viewBox="0 0 28 39" fill="none" xmlns="http://www.w3.org/2000/svg">
<path d="M25.3544 38.3514H2.60288C1.1676 38.3514 0 37.1838 0 35.7485V32.0098C0 31.5917 0.339039 31.2526 0.7572 31.2526H27.2001C27.6182 31.2526 27.9573 31.5917 27.9573 32.0098V35.7485C27.9573 37.1838 26.7897 38.3514 25.3544 38.3514ZM1.5144 32.767V35.7485C1.5144 36.3486 2.00281 36.837 2.60288 36.837H25.3544C25.9544 36.837 26.4429 36.3486 26.4429 35.7485V32.767H1.5144Z" fill="#EE6409"/>
<path d="M27.2001 32.767H0.7572C0.339039 32.767 0 32.428 0 32.0098V6.92755C0 6.50939 0.339039 6.17035 0.7572 6.17035H27.2001C27.6182 6.17035 27.9573 6.50939 27.9573 6.92755V32.0098C27.9573 32.428 27.6182 32.767 27.2001 32.767ZM1.5144 31.2526H26.4429V7.68475H1.5144V31.2526Z" fill="#EE6409"/>
<path d="M27.2001 7.6848H0.7572C0.339039 7.6848 0 7.34576 0 6.9276V3.09427C0 1.65899 1.1676 0.491394 2.60288 0.491394H25.3544C26.7897 0.491394 27.9573 1.65899 27.9573 3.09427V6.9276C27.9573 7.34576 27.6182 7.6848 27.2001 7.6848ZM1.5144 6.1704H26.4429V3.09427C26.4429 2.4942 25.9544 2.00579 25.3544 2.00579H2.60288C2.00281 2.00579 1.5144 2.4942 1.5144 3.09427V6.1704Z" fill="#EE6409"/>
<path d="M15.493 35.5433H12.4642C12.0461 35.5433 11.707 35.2043 11.707 34.7861C11.707 34.368 12.0461 34.0289 12.4642 34.0289H15.493C15.9112 34.0289 16.2502 34.368 16.2502 34.7861C16.2502 35.2043 15.9112 35.5433 15.493 35.5433Z" fill="#EE6409"/>
</svg>
