<svg width="39" height="37" viewBox="0 0 39 37" fill="none" xmlns="http://www.w3.org/2000/svg">
<path d="M21.6494 7.32257C21.6494 5.91415 20.5227 4.78741 19.1143 4.78741C17.7058 4.78741 16.5791 5.91415 16.5791 7.32257C16.5791 8.40907 17.3034 9.3346 18.2692 9.69677V27.0807C17.3034 27.4429 16.5791 28.3684 16.5791 29.4549C16.5791 30.8633 17.7058 31.9901 19.1143 31.9901C20.5227 31.9901 21.6494 30.8633 21.6494 29.4549C21.6494 28.3684 20.9251 27.4429 19.9593 27.0807V9.69677C20.9251 9.3346 21.6494 8.40907 21.6494 7.32257ZM19.1143 6.47752C19.5971 6.47752 19.9593 6.87993 19.9593 7.32257C19.9593 7.80546 19.5569 8.16763 19.1143 8.16763C18.6314 8.16763 18.2692 7.76522 18.2692 7.32257C18.2692 6.83969 18.6314 6.47752 19.1143 6.47752ZM19.1143 30.3C18.6314 30.3 18.2692 29.8976 18.2692 29.4549C18.2692 28.972 18.6716 28.6099 19.1143 28.6099C19.5971 28.6099 19.9593 29.0123 19.9593 29.4549C19.9593 29.9378 19.5971 30.3 19.1143 30.3Z" fill="#EE6409"/>
<path d="M14.5273 12.1514H11.7507V9.69677C12.7165 9.3346 13.4408 8.40907 13.4408 7.32257C13.4408 5.91415 12.3141 4.78741 10.9056 4.78741C9.49722 4.78741 8.37048 5.91415 8.37048 7.32257C8.37048 8.40907 9.09481 9.3346 10.0606 9.69677V12.9965C10.0606 13.4391 10.4227 13.8416 10.9056 13.8416H13.6822V17.5839H9.69842C9.33625 16.6182 8.41072 15.8938 7.32422 15.8938C5.9158 15.8938 4.78906 17.0206 4.78906 18.429C4.78906 19.8374 5.9158 20.9641 7.32422 20.9641C8.41072 20.9641 9.33625 20.2398 9.69842 19.274H13.6822V23.0164H10.9056C10.463 23.0164 10.0606 23.3786 10.0606 23.8615V27.1612C9.09481 27.5234 8.37048 28.4489 8.37048 29.5354C8.37048 30.9438 9.49722 32.0706 10.9056 32.0706C12.3141 32.0706 13.4408 30.9438 13.4408 29.5354C13.4408 28.4489 12.7165 27.5234 11.7507 27.1612V24.7065H14.5273C14.9699 24.7065 15.3723 24.3444 15.3723 23.8615V12.9965C15.3723 12.5136 14.9699 12.1514 14.5273 12.1514ZM10.9056 6.47752C11.3885 6.47752 11.7507 6.87993 11.7507 7.32257C11.7507 7.80546 11.3483 8.16763 10.9056 8.16763C10.4227 8.16763 10.0606 7.76522 10.0606 7.32257C10.0203 6.83969 10.4227 6.47752 10.9056 6.47752ZM7.32422 19.2338C6.84133 19.2338 6.47917 18.8314 6.47917 18.3887C6.47917 17.9461 6.88158 17.5437 7.32422 17.5437C7.80711 17.5437 8.16927 17.9461 8.16927 18.3887C8.16927 18.8314 7.80711 19.2338 7.32422 19.2338ZM10.9056 30.3C10.4227 30.3 10.0606 29.8976 10.0606 29.4549C10.0606 28.972 10.463 28.6099 10.9056 28.6099C11.3885 28.6099 11.7507 29.0123 11.7507 29.4549C11.7507 29.9378 11.3483 30.3 10.9056 30.3Z" fill="#EE6409"/>
<path d="M30.9046 15.8535C29.8181 15.8535 28.8925 16.5779 28.5304 17.5436H24.5466V13.8013H27.3232C27.7658 13.8013 28.1682 13.4391 28.1682 12.9562V9.65649C29.134 9.29432 29.8583 8.36879 29.8583 7.28229C29.8583 5.87387 28.7316 4.74713 27.3232 4.74713C25.9147 4.74713 24.788 5.87387 24.788 7.28229C24.788 8.36879 25.5123 9.29432 26.4781 9.65649V12.1112H23.7015C23.2589 12.1112 22.8564 12.4733 22.8564 12.9562V23.7809C22.8564 24.2236 23.2186 24.626 23.7015 24.626H26.4781V27.0807C25.5123 27.4428 24.788 28.3684 24.788 29.4549C24.788 30.8633 25.9147 31.99 27.3232 31.99C28.7316 31.99 29.8583 30.8633 29.8583 29.4549C29.8583 28.3684 29.134 27.4428 28.1682 27.0807V23.7809C28.1682 23.3383 27.806 22.9359 27.3232 22.9359H24.5466V19.1935H28.5304C28.8925 20.1593 29.8181 20.8836 30.9046 20.8836C32.313 20.8836 33.4397 19.7569 33.4397 18.3485C33.4397 16.94 32.313 15.8535 30.9046 15.8535ZM27.3232 6.47748C27.806 6.47748 28.1682 6.87988 28.1682 7.32253C28.1682 7.80542 27.7658 8.16758 27.3232 8.16758C26.8403 8.16758 26.4781 7.76518 26.4781 7.32253C26.4781 6.83964 26.8805 6.47748 27.3232 6.47748ZM27.3232 30.2999C26.8403 30.2999 26.4781 29.8975 26.4781 29.4549C26.4781 28.972 26.8805 28.6098 27.3232 28.6098C27.806 28.6098 28.1682 29.0122 28.1682 29.4549C28.2084 29.9378 27.806 30.2999 27.3232 30.2999ZM30.9046 19.2338C30.4217 19.2338 30.0595 18.8313 30.0595 18.3887C30.0595 17.9461 30.4619 17.5436 30.9046 17.5436C31.3875 17.5436 31.7496 17.9461 31.7496 18.3887C31.7496 18.8313 31.3875 19.2338 30.9046 19.2338Z" fill="#EE6409"/>
<path d="M32.273 0.320679H5.95561C2.69612 0.320679 0 2.97656 0 6.27629V30.5414C0 33.8009 2.65588 36.497 5.95561 36.497H32.273C35.5325 36.497 38.2286 33.8411 38.2286 30.5414V6.27629C38.2286 2.97656 35.5727 0.320679 32.273 0.320679ZM36.5385 30.5011C36.5385 32.8753 34.6069 34.7666 32.273 34.7666H5.95561C3.58141 34.7666 1.69011 32.8351 1.69011 30.5011V6.27629C1.69011 3.90209 3.62165 2.01078 5.95561 2.01078H32.273C34.6472 2.01078 36.5385 3.94233 36.5385 6.27629V30.5011Z" fill="#EE6409"/>
</svg>
