<svg width="34" height="41" viewBox="0 0 34 41" fill="none" xmlns="http://www.w3.org/2000/svg">
<path d="M14.375 6.21064H10.7813C10.2853 6.21064 9.88281 5.80814 9.88281 5.3122C9.88281 4.81626 10.2853 4.41376 10.7813 4.41376H14.375C14.8709 4.41376 15.2734 4.81626 15.2734 5.3122C15.2734 5.80814 14.8709 6.21064 14.375 6.21064Z" fill="#EE6409"/>
<path d="M21.5625 0.820068H3.59376C1.6118 0.820068 0 2.43187 0 4.41383V36.7576C0 38.7396 1.6118 40.3514 3.59376 40.3514H21.5625C23.5445 40.3514 25.1563 38.7396 25.1563 36.7576V31.367C25.1563 30.8702 24.7547 30.4686 24.2579 30.4686C23.761 30.4686 23.3594 30.8702 23.3594 31.367H1.79688V9.80446H23.3594C23.3594 10.3004 23.761 10.7029 24.2579 10.7029C24.7547 10.7029 25.1563 10.3004 25.1563 9.80446V4.41383C25.1563 2.43187 23.5445 0.820068 21.5625 0.820068ZM23.3594 33.1639V36.7576C23.3594 37.7486 22.5535 38.5545 21.5625 38.5545H3.59376C2.60278 38.5545 1.79688 37.7486 1.79688 36.7576V33.1639H23.3594ZM1.79688 8.00758V4.41383C1.79688 3.42285 2.60278 2.61695 3.59376 2.61695H21.5625C22.5535 2.61695 23.3594 3.42285 23.3594 4.41383V8.00758H1.79688Z" fill="#EE6409"/>
<path d="M24.2569 29.5701C19.3029 29.5701 15.2725 25.5397 15.2725 20.5857C15.2725 15.6317 19.3029 11.6013 24.2569 11.6013C29.2108 11.6013 33.2412 15.6317 33.2412 20.5857C33.2412 25.5397 29.2108 29.5701 24.2569 29.5701ZM24.2569 13.3982C20.2938 13.3982 17.0693 16.6227 17.0693 20.5857C17.0693 24.5487 20.2938 27.7732 24.2569 27.7732C28.2199 27.7732 31.4444 24.5487 31.4444 20.5857C31.4444 16.6227 28.2199 13.3982 24.2569 13.3982Z" fill="#EE6409"/>
<path d="M24.2568 25.9763C21.2839 25.9763 18.8662 23.5586 18.8662 20.5857C18.8662 18.8777 19.6514 17.3073 21.0207 16.2759C21.4178 15.9767 21.9802 16.0566 22.2785 16.4528C22.5768 16.8491 22.4977 17.4124 22.1015 17.7107C21.1878 18.3998 20.6631 19.4473 20.6631 20.5857C20.6631 22.5676 22.2749 24.1794 24.2568 24.1794C26.2388 24.1794 27.8506 22.5676 27.8506 20.5857C27.8506 19.4473 27.3268 18.4007 26.4131 17.7134C26.0169 17.4151 25.9378 16.8518 26.2361 16.4555C26.5335 16.0602 27.0959 15.9785 27.4939 16.2785C28.8425 17.2929 29.6475 18.9029 29.6475 20.5857C29.6475 23.5586 27.2298 25.9763 24.2568 25.9763Z" fill="#EE6409"/>
<path d="M24.2578 21.4841C23.761 21.4841 23.3594 21.0816 23.3594 20.5856V16.0934C23.3594 15.5975 23.761 15.195 24.2578 15.195C24.7547 15.195 25.1563 15.5975 25.1563 16.0934V20.5856C25.1563 21.0816 24.7547 21.4841 24.2578 21.4841Z" fill="#EE6409"/>
</svg>
