<svg width="48" height="25" viewBox="0 0 48 25" fill="none" xmlns="http://www.w3.org/2000/svg">
<path d="M45.2532 8.14467H43.6122C43.5624 8.14467 43.5127 8.14467 43.463 8.14467V2.27667C43.463 1.23237 42.6176 0.436707 41.623 0.436707H1.83997C0.795661 0.436707 0 1.2821 0 2.27667V22.5163C0 23.5606 0.84539 24.3563 1.83997 24.3563H41.623C42.6673 24.3563 43.463 23.5109 43.463 22.5163V16.5986C43.5127 16.5986 43.5624 16.5986 43.6122 16.5986H45.2532C46.2975 16.5986 47.0932 15.7532 47.0932 14.7586V9.98464C47.0932 8.94033 46.2478 8.14467 45.2532 8.14467ZM41.7225 9.98464V14.7586V22.4666C41.7225 22.5163 41.6727 22.6158 41.5733 22.6158H1.79024C1.74051 22.6158 1.64105 22.566 1.64105 22.4666V2.27667C1.64105 2.22694 1.69078 2.12749 1.79024 2.12749H41.5733C41.623 2.12749 41.7225 2.17722 41.7225 2.27667V9.98464ZM45.3527 14.7586C45.3527 14.8083 45.3029 14.9078 45.2035 14.9078H43.5624C43.5127 14.9078 43.4133 14.8581 43.4133 14.7586V9.98464C43.4133 9.93491 43.463 9.83545 43.5624 9.83545H45.2035C45.2532 9.83545 45.3527 9.88518 45.3527 9.98464V14.7586Z" fill="#EE6409"/>
<path d="M8.00662 5.06144V19.7314H4.82397V5.06144H8.00662ZM8.85201 3.56958H4.02831C3.68021 3.56958 3.38184 3.86795 3.38184 4.21605V20.5271C3.38184 20.8752 3.68021 21.1736 4.02831 21.1736H8.85201C9.20011 21.1736 9.49848 20.8752 9.49848 20.5271V4.21605C9.49848 3.86795 9.20011 3.56958 8.85201 3.56958Z" fill="#EE6409"/>
<path d="M15.5652 5.06144V19.7314H12.3826V5.06144H15.5652ZM16.4106 3.56958H11.5869C11.2388 3.56958 10.9404 3.86795 10.9404 4.21605V20.5271C10.9404 20.8752 11.2388 21.1736 11.5869 21.1736H16.4106C16.7587 21.1736 17.0571 20.8752 17.0571 20.5271V4.21605C17.0571 3.86795 16.7587 3.56958 16.4106 3.56958Z" fill="#EE6409"/>
<path d="M23.1735 5.06144V19.7314H19.9909V5.06144H23.1735ZM23.9692 3.56958H19.1455C18.7974 3.56958 18.499 3.86795 18.499 4.21605V20.5271C18.499 20.8752 18.7974 21.1736 19.1455 21.1736H23.9692C24.3173 21.1736 24.6157 20.8752 24.6157 20.5271V4.21605C24.6654 3.86795 24.367 3.56958 23.9692 3.56958Z" fill="#EE6409"/>
<path d="M30.7321 5.06144V19.7314H27.5495V5.06144H30.7321ZM31.5278 3.56958H26.7041C26.356 3.56958 26.0576 3.86795 26.0576 4.21605V20.5271C26.0576 20.8752 26.356 21.1736 26.7041 21.1736H31.5278C31.8759 21.1736 32.1743 20.8752 32.1743 20.5271V4.21605C32.224 3.86795 31.9256 3.56958 31.5278 3.56958Z" fill="#EE6409"/>
<path d="M39.1362 3.56958H34.3125C33.9644 3.56958 33.666 3.86795 33.666 4.21605V20.5271C33.666 20.8752 33.9644 21.1736 34.3125 21.1736H39.1362C39.4843 21.1736 39.7827 20.8752 39.7827 20.5271V4.21605C39.7827 3.86795 39.4843 3.56958 39.1362 3.56958ZM38.2908 19.6817H35.1082V5.06144H38.2908V19.6817Z" fill="#EE6409"/>
</svg>
