<svg width="56" height="56" viewBox="0 0 56 56" fill="none" xmlns="http://www.w3.org/2000/svg">
<path d="M10.6206 51.607C11.4205 51.607 12.0689 50.9586 12.0689 50.1587C12.0689 49.3589 11.4205 48.7104 10.6206 48.7104C9.82078 48.7104 9.17236 49.3589 9.17236 50.1587C9.17236 50.9586 9.82078 51.607 10.6206 51.607Z" fill="#E8610C"/>
<path d="M43.4483 51.607C44.2481 51.607 44.8966 50.9586 44.8966 50.1587C44.8966 49.3589 44.2481 48.7104 43.4483 48.7104C42.6484 48.7104 42 49.3589 42 50.1587C42 50.9586 42.6484 51.607 43.4483 51.607Z" fill="#E8610C"/>
<path d="M51.1724 35.676H50.96L48.2759 24.8236C48.223 24.6094 48.0984 24.4197 47.9227 24.2862C47.747 24.1527 47.5309 24.0834 47.3103 24.0898H34.7586V16.3657C34.7586 16.1096 34.6569 15.864 34.4758 15.6829C34.2948 15.5019 34.0492 15.4001 33.7931 15.4001H0.965517C0.709446 15.4001 0.463863 15.5019 0.282793 15.6829C0.101724 15.864 0 16.1096 0 16.3657V46.2967C0 46.9307 0.124869 47.5584 0.367478 48.1441C0.610087 48.7298 0.965684 49.262 1.41397 49.7103C1.86225 50.1586 2.39444 50.5142 2.98015 50.7568C3.56586 50.9994 4.19362 51.1243 4.82759 51.1243H4.91448C5.14969 52.4669 5.8508 53.6836 6.89449 54.5604C7.93818 55.4371 9.25761 55.9178 10.6207 55.9178C11.9838 55.9178 13.3032 55.4371 14.3469 54.5604C15.3906 53.6836 16.0917 52.4669 16.3269 51.1243H37.7421C37.9773 52.4669 38.6784 53.6836 39.7221 54.5604C40.7658 55.4371 42.0852 55.9178 43.4483 55.9178C44.8114 55.9178 46.1308 55.4371 47.1745 54.5604C48.2182 53.6836 48.9193 52.4669 49.1545 51.1243H51.1724C51.8064 51.1243 52.4341 50.9994 53.0199 50.7568C53.6056 50.5142 54.1377 50.1586 54.586 49.7103C55.0343 49.262 55.3899 48.7298 55.6325 48.1441C55.8751 47.5584 56 46.9307 56 46.2967V40.5036C56 39.2232 55.4914 37.9953 54.586 37.09C53.6807 36.1846 52.4528 35.676 51.1724 35.676ZM32.8276 17.3312V40.5036H1.93103V17.3312H32.8276ZM10.6207 54.0208C9.85684 54.0208 9.11015 53.7943 8.47504 53.37C7.83993 52.9456 7.34491 52.3424 7.0526 51.6367C6.76029 50.931 6.68381 50.1545 6.83283 49.4053C6.98185 48.6561 7.34967 47.968 7.88979 47.4279C8.42991 46.8878 9.11807 46.5199 9.86724 46.3709C10.6164 46.2219 11.3929 46.2984 12.0986 46.5907C12.8043 46.883 13.4075 47.378 13.8319 48.0131C14.2563 48.6482 14.4828 49.3949 14.4828 50.1588C14.4828 51.1831 14.0759 52.1654 13.3516 52.8897C12.6273 53.6139 11.645 54.0208 10.6207 54.0208ZM10.6207 44.3657C9.25267 44.3671 7.92928 44.8525 6.88489 45.7361C5.84049 46.6197 5.14249 47.8444 4.91448 49.1932H4.82759C4.05937 49.1932 3.32262 48.8881 2.77941 48.3449C2.23621 47.8017 1.93103 47.0649 1.93103 46.2967V42.4346H32.8276V49.1932H16.3269C16.0989 47.8444 15.4009 46.6197 14.3565 45.7361C13.3121 44.8525 11.9887 44.3671 10.6207 44.3657ZM43.4483 54.0208C42.6844 54.0208 41.9377 53.7943 41.3026 53.37C40.6675 52.9456 40.1725 52.3424 39.8802 51.6367C39.5879 50.931 39.5114 50.1545 39.6604 49.4053C39.8094 48.6561 40.1773 47.968 40.7174 47.4279C41.2575 46.8878 41.9457 46.5199 42.6948 46.3709C43.444 46.2219 44.2205 46.2984 44.9262 46.5907C45.6319 46.883 46.2351 47.378 46.6595 48.0131C47.0838 48.6482 47.3103 49.3949 47.3103 50.1588C47.3103 51.1831 46.9034 52.1654 46.1792 52.8897C45.4549 53.6139 44.4726 54.0208 43.4483 54.0208ZM54.069 46.2967C54.069 47.0649 53.7638 47.8017 53.2206 48.3449C52.6774 48.8881 51.9406 49.1932 51.1724 49.1932H49.1545C48.9193 47.8506 48.2182 46.6339 47.1745 45.7572C46.1308 44.8804 44.8114 44.3998 43.4483 44.3998C42.0852 44.3998 40.7658 44.8804 39.7221 45.7572C38.6784 46.6339 37.9773 47.8506 37.7421 49.1932H34.7586V26.0208H46.5572L49.2414 36.8733C49.5021 37.9064 50.7283 37.5395 51.1724 37.607C51.9406 37.607 52.6774 37.9122 53.2206 38.4554C53.7638 38.9986 54.069 39.7354 54.069 40.5036V46.2967Z" fill="#E8610C"/>
<path d="M45.2345 28.6856C45.1817 28.4714 45.057 28.2817 44.8813 28.1482C44.7057 28.0147 44.4896 27.9454 44.269 27.9518H37.6552C37.3991 27.9518 37.1536 28.0535 36.9725 28.2346C36.7914 28.4157 36.6897 28.6613 36.6897 28.9173V36.6415C36.6897 36.8976 36.7914 37.1431 36.9725 37.3242C37.1536 37.5053 37.3991 37.607 37.6552 37.607H46.229C46.3779 37.6114 46.5258 37.5812 46.661 37.519C46.7963 37.4567 46.9154 37.3639 47.0089 37.248C47.1024 37.1321 47.1678 36.9961 47.2 36.8506C47.2322 36.7052 47.2303 36.5543 47.1945 36.4098L45.2345 28.6856ZM38.6207 35.676V29.8829H43.5449L44.9931 35.676H38.6207Z" fill="#E8610C"/>
<line x1="33.6001" y1="8.9999" x2="16.8001" y2="8.9999" stroke="#E8610C" stroke-width="1.2"/>
<line x1="29.3999" y1="4.79995" x2="12.5999" y2="4.79995" stroke="#E8610C" stroke-width="1.2"/>
<line x1="25.2" y1="0.6" x2="8.39995" y2="0.6" stroke="#E8610C" stroke-width="1.2"/>
</svg>
