<svg width="51" height="51" viewBox="0 0 51 51" fill="none" xmlns="http://www.w3.org/2000/svg">
<path d="M50.8523 27.5638L47.335 22.288C47.2547 22.1676 47.1459 22.0689 47.0183 22.0006C46.8907 21.9323 46.7482 21.8966 46.6035 21.8967H38.6897V6.94839C38.6676 6.7787 38.6177 6.61381 38.5419 6.46037L35.0247 1.18451C34.9444 1.06411 34.8356 0.96541 34.7079 0.897152C34.5803 0.828893 34.4378 0.793191 34.2931 0.793213H16.7069C16.5622 0.793191 16.4197 0.828893 16.2921 0.897152C16.1644 0.96541 16.0556 1.06411 15.9753 1.18451L12.4581 6.46037C12.435 6.49434 12.4166 6.53132 12.4036 6.57028C12.3442 6.68762 12.3123 6.81691 12.3103 6.94839V21.8967H4.39655C4.25182 21.8966 4.10933 21.9323 3.98171 22.0006C3.85409 22.0689 3.74529 22.1676 3.66497 22.288L0.147724 27.5638C0.0722274 27.7174 0.0223285 27.8822 0 28.0518V49.1553C0 49.3885 0.0926413 49.6121 0.257544 49.777C0.422447 49.9419 0.646103 50.0346 0.87931 50.0346H50.1207C50.3539 50.0346 50.5776 49.9419 50.7425 49.777C50.9074 49.6121 51 49.3885 51 49.1553V28.0518C50.9777 27.8822 50.9278 27.7174 50.8523 27.5638ZM48.4781 27.1725H41.1931L40.6066 23.6553H46.133L48.4781 27.1725ZM36.0517 28.9311H39.569V35.2015L38.2984 34.3547C38.1539 34.2583 37.9841 34.2069 37.8103 34.2069C37.6366 34.2069 37.4668 34.2583 37.3223 34.3547L36.0517 35.2015V28.9311ZM38.8242 23.6553L39.4098 27.1725H38.6897V23.6553H38.8242ZM33.8227 2.55183L36.1678 6.06907H28.8827L28.2962 2.55183H33.8227ZM24.4862 2.55183H26.5138L27.0995 6.06907H23.9005L24.4862 2.55183ZM23.7414 7.8277H27.2586V14.0981L25.988 13.2513C25.8435 13.1549 25.6737 13.1034 25.5 13.1034C25.3263 13.1034 25.1565 13.1549 25.012 13.2513L23.7414 14.0981V7.8277ZM17.1773 2.55183H22.7038L22.1173 6.06907H14.8322L17.1773 2.55183ZM14.069 7.8277H21.9828V15.7415C21.9827 15.9007 22.0259 16.0569 22.1077 16.1935C22.1895 16.33 22.3069 16.4418 22.4472 16.5169C22.5876 16.592 22.7457 16.6276 22.9047 16.6199C23.0637 16.6122 23.2177 16.5614 23.3501 16.4731L25.5 15.038L27.6499 16.4713C27.7822 16.5596 27.936 16.6103 28.0948 16.6181C28.2537 16.6259 28.4117 16.5905 28.552 16.5156C28.6923 16.4407 28.8097 16.3292 28.8916 16.1928C28.9735 16.0565 29.0169 15.9005 29.0172 15.7415V7.8277H36.931V27.1725H14.069V7.8277ZM11.431 28.9311H14.9483V35.2015L13.6777 34.3547C13.5332 34.2583 13.3634 34.2069 13.1897 34.2069C13.016 34.2069 12.8461 34.2583 12.7016 34.3547L11.431 35.2015V28.9311ZM12.3103 23.6553V27.1725H11.5902L12.1758 23.6553H12.3103ZM4.86698 23.6553H10.3934L9.80695 27.1725H2.52186L4.86698 23.6553ZM1.75862 28.9311H9.67241V36.8449C9.67239 37.0041 9.71558 37.1603 9.79739 37.2969C9.87919 37.4335 9.99653 37.5453 10.1369 37.6204C10.2773 37.6955 10.4354 37.7311 10.5944 37.7233C10.7534 37.7156 10.9073 37.6649 11.0397 37.5765L13.1897 36.1415L15.3396 37.5748C15.4719 37.663 15.6256 37.7138 15.7845 37.7216C15.9433 37.7294 16.1013 37.6939 16.2416 37.619C16.3819 37.5441 16.4993 37.4326 16.5812 37.2963C16.6632 37.16 16.7066 37.004 16.7069 36.8449V28.9311H24.6207V48.276H1.75862V28.9311ZM49.2414 48.276H26.3793V28.9311H34.2931V36.8449C34.2931 37.0041 34.3363 37.1603 34.4181 37.2969C34.4999 37.4335 34.6172 37.5453 34.7576 37.6204C34.898 37.6955 35.0561 37.7311 35.2151 37.7233C35.3741 37.7156 35.528 37.6649 35.6604 37.5765L37.8103 36.1415L39.9603 37.5748C40.0926 37.663 40.2463 37.7138 40.4052 37.7216C40.564 37.7294 40.722 37.6939 40.8623 37.619C41.0026 37.5441 41.12 37.4326 41.2019 37.2963C41.2839 37.16 41.3273 37.004 41.3276 36.8449V28.9311H49.2414V48.276Z" fill="#E8610C"/>
</svg>
