<svg width="18" height="16" viewBox="0 0 18 16" fill="none" xmlns="http://www.w3.org/2000/svg">
<path fill-rule="evenodd" clip-rule="evenodd" d="M1.24248 6.83118C5.90681 4.79901 9.01709 3.45928 10.5733 2.81199C15.0167 0.963837 15.94 0.642794 16.5418 0.632193C16.6741 0.629862 16.9701 0.662664 17.1618 0.818214C17.3237 0.949558 17.3682 1.12699 17.3895 1.25151C17.4108 1.37604 17.4373 1.65972 17.4163 1.88138C17.1755 4.41136 16.1336 10.5509 15.6035 13.3846C15.3792 14.5836 14.9376 14.9856 14.5101 15.0249C13.5809 15.1104 12.8754 14.4109 11.9754 13.821C10.5672 12.8979 9.77169 12.3232 8.40478 11.4225C6.82508 10.3815 7.84913 9.80932 8.7494 8.87426C8.985 8.62956 13.0789 4.90588 13.1581 4.56809C13.168 4.52584 13.1772 4.36836 13.0836 4.28521C12.9901 4.20206 12.852 4.23049 12.7524 4.25311C12.6111 4.28516 10.3615 5.77208 6.00348 8.71387C5.36493 9.15235 4.78655 9.36599 4.26834 9.35479C3.69706 9.34245 2.59814 9.03178 1.78121 8.76623C0.779208 8.44052 -0.0171629 8.26831 0.0521831 7.71515C0.0883028 7.42703 0.485069 7.13238 1.24248 6.83118Z" fill="white"/>
</svg>
