<svg width="20" height="20" viewBox="0 0 20 20" fill="none" xmlns="http://www.w3.org/2000/svg">
<path d="M10 2.12962C12.5633 2.12962 12.867 2.13942 13.8792 2.1856C14.8152 2.22828 15.3236 2.38467 15.6618 2.51614C16.1099 2.69029 16.4297 2.89832 16.7656 3.23423C17.1016 3.57019 17.3096 3.88998 17.4838 4.33808C17.6152 4.67636 17.7716 5.18467 17.8143 6.12066C17.8605 7.13294 17.8703 7.43657 17.8703 9.99985C17.8703 12.5632 17.8605 12.8668 17.8143 13.8791C17.7716 14.8151 17.6152 15.3234 17.4838 15.6617C17.3096 16.1098 17.1016 16.4296 16.7657 16.7655C16.4297 17.1014 16.1099 17.3094 15.6618 17.4836C15.3236 17.6151 14.8152 17.7715 13.8792 17.8141C12.8671 17.8603 12.5635 17.8701 10 17.8701C7.43653 17.8701 7.13297 17.8603 6.1208 17.8141C5.18481 17.7715 4.6765 17.6151 4.33822 17.4836C3.89012 17.3094 3.57032 17.1014 3.2344 16.7655C2.89849 16.4296 2.69042 16.1098 2.51627 15.6617C2.3848 15.3234 2.22841 14.8151 2.18573 13.8791C2.13954 12.8668 2.12975 12.5632 2.12975 9.99985C2.12975 7.43657 2.13954 7.13294 2.18573 6.12066C2.22841 5.18467 2.3848 4.67636 2.51627 4.33808C2.69042 3.88998 2.89845 3.57019 3.2344 3.23427C3.57032 2.89832 3.89012 2.69029 4.33822 2.51614C4.6765 2.38467 5.18481 2.22828 6.1208 2.1856C7.13308 2.13942 7.43672 2.12962 10 2.12962ZM10 0.399902C7.39282 0.399902 7.0659 0.410953 6.04196 0.457673C5.02015 0.504278 4.32229 0.666576 3.71166 0.903869C3.08037 1.1492 2.54501 1.47746 2.01128 2.01115C1.47758 2.54488 1.14933 3.08024 0.904031 3.71153C0.666699 4.32215 0.5044 5.02001 0.457795 6.04181C0.411076 7.06575 0.400024 7.39267 0.400024 9.99985C0.400024 12.6071 0.411076 12.934 0.457795 13.9579C0.5044 14.9797 0.666699 15.6776 0.904031 16.2882C1.14933 16.9195 1.47758 17.4549 2.01128 17.9886C2.54501 18.5223 3.08037 18.8505 3.71166 19.0958C4.32229 19.3332 5.02015 19.4955 6.04196 19.5421C7.0659 19.5888 7.39282 19.5998 10 19.5998C12.6072 19.5998 12.9341 19.5888 13.9581 19.5421C14.9799 19.4955 15.6778 19.3332 16.2884 19.0958C16.9197 18.8505 17.455 18.5223 17.9888 17.9886C18.5225 17.4549 18.8507 16.9195 19.0961 16.2882C19.3333 15.6776 19.4956 14.9797 19.5423 13.9579C19.589 12.934 19.6 12.6071 19.6 9.99985C19.6 7.39267 19.589 7.06575 19.5423 6.04181C19.4956 5.02001 19.3333 4.32215 19.0961 3.71153C18.8507 3.08024 18.5225 2.54488 17.9888 2.01115C17.455 1.47746 16.9197 1.1492 16.2884 0.903869C15.6778 0.666576 14.9799 0.504278 13.9581 0.457673C12.9341 0.410953 12.6072 0.399902 10 0.399902Z" fill="white"/>
<path d="M10.0045 5.07471C7.2818 5.07471 5.07471 7.2818 5.07471 10.0044C5.07471 12.727 7.2818 14.9341 10.0045 14.9341C12.7271 14.9341 14.9342 12.727 14.9342 10.0044C14.9342 7.2818 12.7271 5.07471 10.0045 5.07471ZM10.0045 13.2044C8.23711 13.2044 6.80443 11.7717 6.80443 10.0044C6.80443 8.2371 8.23711 6.80443 10.0045 6.80443C11.7718 6.80443 13.2044 8.2371 13.2044 10.0044C13.2044 11.7717 11.7718 13.2044 10.0045 13.2044Z" fill="white"/>
<path d="M16.2806 4.87712C16.2806 5.51332 15.7648 6.0291 15.1285 6.0291C14.4923 6.0291 13.9766 5.51332 13.9766 4.87712C13.9766 4.24088 14.4923 3.7251 15.1285 3.7251C15.7648 3.7251 16.2806 4.24088 16.2806 4.87712Z" fill="white"/>
</svg>
