<svg width="21" height="20" viewBox="0 0 21 20" fill="none" xmlns="http://www.w3.org/2000/svg">
<path fill-rule="evenodd" clip-rule="evenodd" d="M13.7091 13.619C13.911 13.417 14.3238 13.5024 14.6311 13.8097L19.5338 18.7124C19.8411 19.0197 19.9265 19.4324 19.7245 19.6344C19.5226 19.8363 19.1098 19.7509 18.8026 19.4436L13.8999 14.5409C13.5926 14.2337 13.5072 13.8209 13.7091 13.619Z" fill="black"/>
<path fill-rule="evenodd" clip-rule="evenodd" d="M3.04212 7.84061C3.66961 5.49879 5.49879 3.66961 7.84062 3.04212C10.1824 2.41463 12.6811 3.08415 14.3955 4.79849C16.1098 6.51283 16.7793 9.01153 16.1519 11.3534C15.5244 13.6952 13.6952 15.5244 11.3534 16.1519C9.01153 16.7793 6.51283 16.1098 4.79849 14.3955C3.08416 12.6811 2.41463 10.1824 3.04212 7.84061ZM8.10827 4.04101C6.12331 4.57287 4.57288 6.1233 4.04101 8.10826C3.50914 10.0932 4.07664 12.2112 5.52973 13.6642C6.98282 15.1173 9.10075 15.6848 11.0857 15.153C13.0707 14.6211 14.6211 13.0707 15.153 11.0857C15.6848 9.10075 15.1173 6.98282 13.6642 5.52973C12.2112 4.07663 10.0932 3.50914 8.10827 4.04101Z" fill="black"/>
</svg>
