<svg width="19" height="12" viewBox="0 0 19 12" fill="none" xmlns="http://www.w3.org/2000/svg">
<path fill-rule="evenodd" clip-rule="evenodd" d="M3.10316 0.199951H1.0902C0.515059 0.199951 0.400024 0.477476 0.400024 0.783412C0.400024 1.32991 1.08247 4.04025 3.57759 7.6249C5.241 10.0729 7.58459 11.4 9.7172 11.4C10.9967 11.4 11.155 11.1052 11.155 10.5976V8.74732C11.155 8.15785 11.2763 8.04019 11.6814 8.04019C11.98 8.04019 12.4918 8.19321 13.6861 9.37352C15.051 10.7724 15.276 11.4 16.0436 11.4H18.0566C18.6318 11.4 18.9193 11.1052 18.7534 10.5236C18.5719 9.94389 17.9203 9.10277 17.0556 8.10579C16.5864 7.53748 15.8826 6.92549 15.6694 6.61944C15.3708 6.22602 15.4561 6.05113 15.6694 5.70145C15.6694 5.70145 18.1219 2.16048 18.3778 0.958368C18.5057 0.521155 18.3778 0.199951 17.769 0.199951H15.7561C15.2443 0.199951 15.0083 0.477476 14.8803 0.783412C14.8803 0.783412 13.8567 3.34078 12.4065 5.00198C11.9373 5.48281 11.7241 5.63584 11.4681 5.63584C11.3402 5.63584 11.155 5.48281 11.155 5.04572V0.958368C11.155 0.433737 11.0065 0.199951 10.5799 0.199951H7.41663C7.09682 0.199951 6.90442 0.443404 6.90442 0.674183C6.90442 1.17146 7.62949 1.28617 7.70424 2.68505V5.72332C7.70424 6.38943 7.58683 6.51021 7.33095 6.51021C6.64855 6.51021 4.98858 3.9414 4.00406 1.00205C3.81115 0.43073 3.61761 0.199951 3.10316 0.199951Z" fill="white"/>
</svg>
